<mxfile host="Electron" agent="Mozilla/5.0 (Windows NT 10.0; Win64; x64) AppleWebKit/537.36 (KHTML, like Gecko) draw.io/24.7.17 Chrome/128.0.6613.36 Electron/32.0.1 Safari/537.36" version="24.7.17">
  <diagram name="Página-1" id="hvZlXUl1sKQ0kcNKv2cv">
    <mxGraphModel dx="3937" dy="2147" grid="1" gridSize="10" guides="1" tooltips="1" connect="1" arrows="1" fold="1" page="1" pageScale="1" pageWidth="827" pageHeight="1169" math="0" shadow="0">
      <root>
        <mxCell id="0" />
        <mxCell id="1" parent="0" />
        <mxCell id="TpiVkqb_S075HDp6gT5E-1" value="" style="html=1;dropTarget=0;whiteSpace=wrap;fillColor=#1ba1e2;fontColor=#ffffff;strokeColor=#000000;" vertex="1" parent="1">
          <mxGeometry x="32" y="116" width="1310" height="769" as="geometry" />
        </mxCell>
        <mxCell id="TpiVkqb_S075HDp6gT5E-2" value="" style="shape=module;jettyWidth=8;jettyHeight=4;fillColor=#1ba1e2;fontColor=#ffffff;strokeColor=#006EAF;" vertex="1" parent="TpiVkqb_S075HDp6gT5E-1">
          <mxGeometry x="1" width="29" height="20" relative="1" as="geometry">
            <mxPoint x="-61" y="17" as="offset" />
          </mxGeometry>
        </mxCell>
        <mxCell id="TpiVkqb_S075HDp6gT5E-3" value="" style="shape=folder;fontStyle=1;spacingTop=10;tabWidth=70;tabHeight=15;tabPosition=left;html=1;whiteSpace=wrap;fillColor=#d5e8d4;strokeColor=#82b366;" vertex="1" parent="1">
          <mxGeometry x="60" y="370" width="1250" height="130" as="geometry" />
        </mxCell>
        <mxCell id="TpiVkqb_S075HDp6gT5E-4" value="" style="shape=folder;fontStyle=1;spacingTop=10;tabWidth=70;tabHeight=10;tabPosition=left;html=1;whiteSpace=wrap;fillColor=#cce5ff;strokeColor=#36393d;" vertex="1" parent="1">
          <mxGeometry x="60" y="170" width="1250" height="120" as="geometry" />
        </mxCell>
        <mxCell id="TpiVkqb_S075HDp6gT5E-5" value="&lt;span style=&quot;color: rgb(255, 255, 255);&quot;&gt;«component»&lt;/span&gt;&lt;br style=&quot;color: rgb(255, 255, 255);&quot;&gt;&lt;span style=&quot;color: rgb(255, 255, 255);&quot;&gt;«C4 container»&lt;/span&gt;&lt;br style=&quot;color: rgb(255, 255, 255);&quot;&gt;&lt;b style=&quot;color: rgb(255, 255, 255);&quot;&gt;MDBackoffice&lt;/b&gt;" style="text;html=1;align=center;verticalAlign=middle;whiteSpace=wrap;rounded=0;" vertex="1" parent="1">
          <mxGeometry x="537.5" y="120" width="150" height="50" as="geometry" />
        </mxCell>
        <mxCell id="TpiVkqb_S075HDp6gT5E-6" value="" style="group" vertex="1" connectable="0" parent="1">
          <mxGeometry x="72.5" y="403" width="150" height="80" as="geometry" />
        </mxCell>
        <mxCell id="TpiVkqb_S075HDp6gT5E-7" value="" style="group" vertex="1" connectable="0" parent="TpiVkqb_S075HDp6gT5E-6">
          <mxGeometry width="150" height="80" as="geometry" />
        </mxCell>
        <mxCell id="TpiVkqb_S075HDp6gT5E-8" value="«component»&lt;br&gt;&lt;b&gt;Controller&lt;/b&gt;" style="html=1;dropTarget=0;whiteSpace=wrap;fillColor=#1ba1e2;fontColor=#ffffff;strokeColor=#000000;" vertex="1" parent="TpiVkqb_S075HDp6gT5E-7">
          <mxGeometry y="10" width="150" height="70" as="geometry" />
        </mxCell>
        <mxCell id="TpiVkqb_S075HDp6gT5E-9" value="" style="shape=module;jettyWidth=8;jettyHeight=4;fillColor=#1ba1e2;fontColor=#ffffff;strokeColor=#006EAF;" vertex="1" parent="TpiVkqb_S075HDp6gT5E-8">
          <mxGeometry x="1" width="20" height="20" relative="1" as="geometry">
            <mxPoint x="-27" y="7" as="offset" />
          </mxGeometry>
        </mxCell>
        <mxCell id="TpiVkqb_S075HDp6gT5E-10" value="" style="ellipse;whiteSpace=wrap;html=1;aspect=fixed;fillColor=#1ba1e2;fontColor=#ffffff;strokeColor=#000000;" vertex="1" parent="1">
          <mxGeometry x="135.5" y="30" width="25" height="25" as="geometry" />
        </mxCell>
        <mxCell id="TpiVkqb_S075HDp6gT5E-11" value="" style="ellipse;whiteSpace=wrap;html=1;align=center;aspect=fixed;fillColor=none;strokeColor=none;resizable=0;perimeter=centerPerimeter;rotatable=0;allowArrows=0;points=[];outlineConnect=1;" vertex="1" parent="1">
          <mxGeometry x="400" y="350" width="10" height="10" as="geometry" />
        </mxCell>
        <mxCell id="TpiVkqb_S075HDp6gT5E-12" value="" style="ellipse;whiteSpace=wrap;html=1;align=center;aspect=fixed;fillColor=none;strokeColor=none;resizable=0;perimeter=centerPerimeter;rotatable=0;allowArrows=0;points=[];outlineConnect=1;" vertex="1" parent="1">
          <mxGeometry x="430" y="370" width="10" height="10" as="geometry" />
        </mxCell>
        <mxCell id="TpiVkqb_S075HDp6gT5E-13" style="edgeStyle=orthogonalEdgeStyle;rounded=0;orthogonalLoop=1;jettySize=auto;html=1;strokeColor=#00080D;endArrow=none;endFill=0;labelBackgroundColor=none;entryX=0.5;entryY=0;entryDx=0;entryDy=0;" edge="1" parent="1" source="TpiVkqb_S075HDp6gT5E-10" target="TpiVkqb_S075HDp6gT5E-90">
          <mxGeometry relative="1" as="geometry">
            <mxPoint x="148" y="115" as="targetPoint" />
          </mxGeometry>
        </mxCell>
        <mxCell id="TpiVkqb_S075HDp6gT5E-14" value="&lt;b&gt;Backoffice API&lt;/b&gt;" style="edgeLabel;html=1;align=center;verticalAlign=middle;resizable=0;points=[];labelBackgroundColor=none;" vertex="1" connectable="0" parent="TpiVkqb_S075HDp6gT5E-13">
          <mxGeometry x="-0.0108" relative="1" as="geometry">
            <mxPoint as="offset" />
          </mxGeometry>
        </mxCell>
        <mxCell id="TpiVkqb_S075HDp6gT5E-15" value="Interface Adapters Layer" style="text;html=1;align=center;verticalAlign=middle;resizable=0;points=[];autosize=1;strokeColor=none;fillColor=none;fontColor=#000000;fontStyle=1" vertex="1" parent="1">
          <mxGeometry x="420" y="380" width="150" height="30" as="geometry" />
        </mxCell>
        <mxCell id="TpiVkqb_S075HDp6gT5E-16" value="" style="group" vertex="1" connectable="0" parent="1">
          <mxGeometry x="70" y="195" width="150" height="80" as="geometry" />
        </mxCell>
        <mxCell id="TpiVkqb_S075HDp6gT5E-17" value="" style="group" vertex="1" connectable="0" parent="TpiVkqb_S075HDp6gT5E-16">
          <mxGeometry width="150" height="80" as="geometry" />
        </mxCell>
        <mxCell id="TpiVkqb_S075HDp6gT5E-18" value="«component»&lt;br&gt;&lt;b&gt;Routing&lt;/b&gt;" style="html=1;dropTarget=0;whiteSpace=wrap;fillColor=#1ba1e2;fontColor=#ffffff;strokeColor=#000000;" vertex="1" parent="TpiVkqb_S075HDp6gT5E-17">
          <mxGeometry y="10" width="150" height="70" as="geometry" />
        </mxCell>
        <mxCell id="TpiVkqb_S075HDp6gT5E-19" value="" style="shape=module;jettyWidth=8;jettyHeight=4;fillColor=#1ba1e2;fontColor=#ffffff;strokeColor=#006EAF;" vertex="1" parent="TpiVkqb_S075HDp6gT5E-18">
          <mxGeometry x="1" width="20" height="20" relative="1" as="geometry">
            <mxPoint x="-27" y="7" as="offset" />
          </mxGeometry>
        </mxCell>
        <mxCell id="TpiVkqb_S075HDp6gT5E-20" value="" style="rounded=0;whiteSpace=wrap;html=1;fillColor=#1ba1e2;fontColor=#ffffff;strokeColor=#000000;" vertex="1" parent="TpiVkqb_S075HDp6gT5E-17">
          <mxGeometry x="70.25" y="4" width="13.75" height="10" as="geometry" />
        </mxCell>
        <mxCell id="TpiVkqb_S075HDp6gT5E-21" value="" style="rounded=0;orthogonalLoop=1;jettySize=auto;html=1;endArrow=halfCircle;endFill=0;endSize=5;strokeWidth=1;sketch=0;labelBackgroundColor=default;strokeColor=#030303;startSize=6;exitX=0.234;exitY=1.003;exitDx=0;exitDy=0;exitPerimeter=0;" edge="1" parent="1" source="TpiVkqb_S075HDp6gT5E-18" target="TpiVkqb_S075HDp6gT5E-24">
          <mxGeometry relative="1" as="geometry">
            <mxPoint x="105" y="280" as="sourcePoint" />
          </mxGeometry>
        </mxCell>
        <mxCell id="TpiVkqb_S075HDp6gT5E-22" value="" style="rounded=0;orthogonalLoop=1;jettySize=auto;html=1;endArrow=oval;endFill=0;sketch=0;sourcePerimeterSpacing=0;targetPerimeterSpacing=0;endSize=10;strokeColor=#080808;strokeWidth=1;startSize=11;exitX=0.222;exitY=-0.002;exitDx=0;exitDy=0;exitPerimeter=0;" edge="1" parent="1" source="TpiVkqb_S075HDp6gT5E-8" target="TpiVkqb_S075HDp6gT5E-24">
          <mxGeometry relative="1" as="geometry">
            <mxPoint x="106" y="412" as="sourcePoint" />
          </mxGeometry>
        </mxCell>
        <mxCell id="TpiVkqb_S075HDp6gT5E-23" value="Controller API" style="edgeLabel;html=1;align=center;verticalAlign=middle;resizable=0;points=[];labelBackgroundColor=none;fontStyle=1;fontSize=9;" vertex="1" connectable="0" parent="TpiVkqb_S075HDp6gT5E-22">
          <mxGeometry x="0.372" relative="1" as="geometry">
            <mxPoint y="-10" as="offset" />
          </mxGeometry>
        </mxCell>
        <mxCell id="TpiVkqb_S075HDp6gT5E-24" value="" style="ellipse;whiteSpace=wrap;html=1;align=center;aspect=fixed;fillColor=none;strokeColor=#000000;resizable=0;perimeter=centerPerimeter;rotatable=0;allowArrows=0;points=[];outlineConnect=1;strokeWidth=1;perimeterSpacing=5;" vertex="1" parent="1">
          <mxGeometry x="100" y="330" width="10" height="10" as="geometry" />
        </mxCell>
        <mxCell id="TpiVkqb_S075HDp6gT5E-25" value="" style="shape=folder;fontStyle=1;spacingTop=10;tabWidth=70;tabHeight=15;tabPosition=left;html=1;whiteSpace=wrap;fillColor=#f8cecc;strokeColor=#b85450;" vertex="1" parent="1">
          <mxGeometry x="60" y="540" width="1250" height="130" as="geometry" />
        </mxCell>
        <mxCell id="TpiVkqb_S075HDp6gT5E-26" value="" style="shape=folder;fontStyle=1;spacingTop=10;tabWidth=70;tabHeight=15;tabPosition=left;html=1;whiteSpace=wrap;fillColor=#ffe6cc;strokeColor=#d79b00;" vertex="1" parent="1">
          <mxGeometry x="60" y="720" width="1250" height="130" as="geometry" />
        </mxCell>
        <mxCell id="TpiVkqb_S075HDp6gT5E-27" value="Application Business Rules" style="text;html=1;align=center;verticalAlign=middle;resizable=0;points=[];autosize=1;strokeColor=none;fillColor=none;fontColor=#000000;fontStyle=1" vertex="1" parent="1">
          <mxGeometry x="410" y="560" width="170" height="30" as="geometry" />
        </mxCell>
        <mxCell id="TpiVkqb_S075HDp6gT5E-28" value="Enterprise Business Rules" style="text;html=1;align=center;verticalAlign=middle;resizable=0;points=[];autosize=1;strokeColor=none;fillColor=none;fontColor=#000000;fontStyle=1" vertex="1" parent="1">
          <mxGeometry x="425" y="740" width="160" height="30" as="geometry" />
        </mxCell>
        <mxCell id="TpiVkqb_S075HDp6gT5E-29" value="" style="group" vertex="1" connectable="0" parent="1">
          <mxGeometry x="72.5" y="580" width="150" height="80" as="geometry" />
        </mxCell>
        <mxCell id="TpiVkqb_S075HDp6gT5E-30" value="" style="group" vertex="1" connectable="0" parent="TpiVkqb_S075HDp6gT5E-29">
          <mxGeometry width="150" height="80" as="geometry" />
        </mxCell>
        <mxCell id="TpiVkqb_S075HDp6gT5E-31" value="«component»&lt;br&gt;&lt;b&gt;Application Service&lt;/b&gt;" style="html=1;dropTarget=0;whiteSpace=wrap;fillColor=#1ba1e2;fontColor=#ffffff;strokeColor=#000000;" vertex="1" parent="TpiVkqb_S075HDp6gT5E-30">
          <mxGeometry y="10" width="150" height="70" as="geometry" />
        </mxCell>
        <mxCell id="TpiVkqb_S075HDp6gT5E-32" value="" style="shape=module;jettyWidth=8;jettyHeight=4;fillColor=#1ba1e2;fontColor=#ffffff;strokeColor=#006EAF;" vertex="1" parent="TpiVkqb_S075HDp6gT5E-31">
          <mxGeometry x="1" width="20" height="20" relative="1" as="geometry">
            <mxPoint x="-27" y="7" as="offset" />
          </mxGeometry>
        </mxCell>
        <mxCell id="TpiVkqb_S075HDp6gT5E-33" value="" style="rounded=0;orthogonalLoop=1;jettySize=auto;html=1;endArrow=halfCircle;endFill=0;endSize=6;strokeWidth=1;sketch=0;exitX=0.5;exitY=1;exitDx=0;exitDy=0;strokeColor=#000000;" edge="1" parent="1" source="TpiVkqb_S075HDp6gT5E-8" target="TpiVkqb_S075HDp6gT5E-36">
          <mxGeometry relative="1" as="geometry">
            <mxPoint x="181" y="525" as="sourcePoint" />
          </mxGeometry>
        </mxCell>
        <mxCell id="TpiVkqb_S075HDp6gT5E-34" value="" style="rounded=0;orthogonalLoop=1;jettySize=auto;html=1;endArrow=oval;endFill=0;sketch=0;sourcePerimeterSpacing=0;targetPerimeterSpacing=0;endSize=10;exitX=0.5;exitY=0;exitDx=0;exitDy=0;strokeColor=#000000;" edge="1" parent="1" source="TpiVkqb_S075HDp6gT5E-31" target="TpiVkqb_S075HDp6gT5E-36">
          <mxGeometry relative="1" as="geometry">
            <mxPoint x="141" y="525" as="sourcePoint" />
          </mxGeometry>
        </mxCell>
        <mxCell id="TpiVkqb_S075HDp6gT5E-35" value="App Service API" style="edgeLabel;html=1;align=center;verticalAlign=middle;resizable=0;points=[];labelBackgroundColor=none;fontStyle=1" vertex="1" connectable="0" parent="TpiVkqb_S075HDp6gT5E-34">
          <mxGeometry x="0.5232" relative="1" as="geometry">
            <mxPoint as="offset" />
          </mxGeometry>
        </mxCell>
        <mxCell id="TpiVkqb_S075HDp6gT5E-36" value="" style="ellipse;whiteSpace=wrap;html=1;align=center;aspect=fixed;fillColor=none;strokeColor=#000000;resizable=0;perimeter=centerPerimeter;rotatable=0;allowArrows=0;points=[];outlineConnect=1;" vertex="1" parent="1">
          <mxGeometry x="142.5" y="500" width="10" height="10" as="geometry" />
        </mxCell>
        <mxCell id="TpiVkqb_S075HDp6gT5E-37" value="" style="group" vertex="1" connectable="0" parent="1">
          <mxGeometry x="300" y="499" width="140" height="50" as="geometry" />
        </mxCell>
        <mxCell id="TpiVkqb_S075HDp6gT5E-38" value="" style="group" vertex="1" connectable="0" parent="TpiVkqb_S075HDp6gT5E-37">
          <mxGeometry width="139.99999999999997" height="50" as="geometry" />
        </mxCell>
        <mxCell id="TpiVkqb_S075HDp6gT5E-39" value="«component»&lt;br&gt;&lt;b&gt;DTO&lt;/b&gt;" style="html=1;dropTarget=0;whiteSpace=wrap;fillColor=#1ba1e2;fontColor=#ffffff;strokeColor=#000000;" vertex="1" parent="TpiVkqb_S075HDp6gT5E-38">
          <mxGeometry y="6.25" width="139.99999999999997" height="43.75" as="geometry" />
        </mxCell>
        <mxCell id="TpiVkqb_S075HDp6gT5E-40" value="" style="shape=module;jettyWidth=8;jettyHeight=4;fillColor=#1ba1e2;fontColor=#ffffff;strokeColor=#006EAF;" vertex="1" parent="TpiVkqb_S075HDp6gT5E-39">
          <mxGeometry x="1" width="20" height="20" relative="1" as="geometry">
            <mxPoint x="-27" y="7" as="offset" />
          </mxGeometry>
        </mxCell>
        <mxCell id="TpiVkqb_S075HDp6gT5E-41" value="" style="rounded=0;orthogonalLoop=1;jettySize=auto;html=1;endArrow=oval;endFill=0;sketch=0;sourcePerimeterSpacing=0;targetPerimeterSpacing=0;endSize=10;exitX=0;exitY=0.5;exitDx=0;exitDy=0;strokeColor=#050505;" edge="1" parent="TpiVkqb_S075HDp6gT5E-38">
          <mxGeometry relative="1" as="geometry">
            <mxPoint y="27.944999999999936" as="sourcePoint" />
            <Array as="points" />
            <mxPoint x="-67.49999999999994" y="27.949999999999932" as="targetPoint" />
          </mxGeometry>
        </mxCell>
        <mxCell id="TpiVkqb_S075HDp6gT5E-42" value="DTO API" style="edgeLabel;html=1;align=center;verticalAlign=middle;resizable=0;points=[];labelBackgroundColor=none;fontSize=9;fontStyle=1" vertex="1" connectable="0" parent="TpiVkqb_S075HDp6gT5E-41">
          <mxGeometry x="0.0679" relative="1" as="geometry">
            <mxPoint as="offset" />
          </mxGeometry>
        </mxCell>
        <mxCell id="TpiVkqb_S075HDp6gT5E-43" value="" style="rounded=0;orthogonalLoop=1;jettySize=auto;html=1;endArrow=halfCircle;endFill=0;endSize=6;strokeWidth=1;sketch=0;exitX=0.734;exitY=-0.006;exitDx=0;exitDy=0;strokeColor=#121212;exitPerimeter=0;" edge="1" parent="1">
          <mxGeometry relative="1" as="geometry">
            <mxPoint x="182.59999999999997" y="589.58" as="sourcePoint" />
            <mxPoint x="232.5" y="530" as="targetPoint" />
            <Array as="points">
              <mxPoint x="182.5" y="556.87" />
              <mxPoint x="232.5" y="556.87" />
              <mxPoint x="232.5" y="541.87" />
            </Array>
          </mxGeometry>
        </mxCell>
        <mxCell id="TpiVkqb_S075HDp6gT5E-44" style="edgeStyle=orthogonalEdgeStyle;rounded=0;orthogonalLoop=1;jettySize=auto;html=1;exitX=0.75;exitY=1;exitDx=0;exitDy=0;entryX=0.136;entryY=0.144;entryDx=0;entryDy=0;entryPerimeter=0;endArrow=halfCircle;endFill=0;strokeColor=#000000;" edge="1" parent="1">
          <mxGeometry relative="1" as="geometry">
            <Array as="points">
              <mxPoint x="179.49" y="510" />
              <mxPoint x="232.49" y="510" />
              <mxPoint x="232.49" y="523" />
            </Array>
            <mxPoint x="179.48999999999995" y="483" as="sourcePoint" />
            <mxPoint x="231.99000000000007" y="523.13" as="targetPoint" />
          </mxGeometry>
        </mxCell>
        <mxCell id="TpiVkqb_S075HDp6gT5E-45" value="" style="group" vertex="1" connectable="0" parent="1">
          <mxGeometry x="520" y="780" width="185" height="50" as="geometry" />
        </mxCell>
        <mxCell id="TpiVkqb_S075HDp6gT5E-46" value="" style="group" vertex="1" connectable="0" parent="TpiVkqb_S075HDp6gT5E-45">
          <mxGeometry width="184.99999999999997" height="50" as="geometry" />
        </mxCell>
        <mxCell id="TpiVkqb_S075HDp6gT5E-47" value="«component»&lt;br&gt;&lt;b&gt;Domain Model (DDD)&lt;/b&gt;" style="html=1;dropTarget=0;whiteSpace=wrap;fillColor=#1ba1e2;fontColor=#ffffff;strokeColor=#000000;" vertex="1" parent="TpiVkqb_S075HDp6gT5E-46">
          <mxGeometry y="6.25" width="184.99999999999997" height="43.75" as="geometry" />
        </mxCell>
        <mxCell id="TpiVkqb_S075HDp6gT5E-48" value="" style="shape=module;jettyWidth=8;jettyHeight=4;fillColor=#1ba1e2;fontColor=#ffffff;strokeColor=#006EAF;" vertex="1" parent="TpiVkqb_S075HDp6gT5E-47">
          <mxGeometry x="1" width="20" height="20" relative="1" as="geometry">
            <mxPoint x="-27" y="7" as="offset" />
          </mxGeometry>
        </mxCell>
        <mxCell id="TpiVkqb_S075HDp6gT5E-49" value="" style="rounded=0;orthogonalLoop=1;jettySize=auto;html=1;endArrow=halfCircle;endFill=0;endSize=6;strokeWidth=1;sketch=0;exitX=0.75;exitY=1;exitDx=0;exitDy=0;strokeColor=#000000;" edge="1" parent="1">
          <mxGeometry relative="1" as="geometry">
            <mxPoint x="180" y="660" as="sourcePoint" />
            <mxPoint x="305" y="695" as="targetPoint" />
            <Array as="points">
              <mxPoint x="180" y="695" />
            </Array>
          </mxGeometry>
        </mxCell>
        <mxCell id="TpiVkqb_S075HDp6gT5E-50" value="" style="rounded=0;orthogonalLoop=1;jettySize=auto;html=1;endArrow=oval;endFill=0;sketch=0;sourcePerimeterSpacing=0;targetPerimeterSpacing=0;endSize=10;strokeColor=#000000;exitX=0;exitY=0.5;exitDx=0;exitDy=0;" edge="1" parent="1" source="TpiVkqb_S075HDp6gT5E-47" target="TpiVkqb_S075HDp6gT5E-52">
          <mxGeometry relative="1" as="geometry">
            <mxPoint x="410" y="810" as="sourcePoint" />
            <Array as="points">
              <mxPoint x="310" y="810" />
            </Array>
          </mxGeometry>
        </mxCell>
        <mxCell id="TpiVkqb_S075HDp6gT5E-51" value="Model API" style="edgeLabel;html=1;align=center;verticalAlign=middle;resizable=0;points=[];labelBackgroundColor=none;fontStyle=1;fontSize=10;" vertex="1" connectable="0" parent="TpiVkqb_S075HDp6gT5E-50">
          <mxGeometry x="0.4729" y="-1" relative="1" as="geometry">
            <mxPoint x="-1" y="-32" as="offset" />
          </mxGeometry>
        </mxCell>
        <mxCell id="TpiVkqb_S075HDp6gT5E-52" value="" style="ellipse;whiteSpace=wrap;html=1;align=center;aspect=fixed;fillColor=none;strokeColor=none;resizable=0;perimeter=centerPerimeter;rotatable=0;allowArrows=0;points=[];outlineConnect=1;" vertex="1" parent="1">
          <mxGeometry x="305" y="690" width="10" height="10" as="geometry" />
        </mxCell>
        <mxCell id="TpiVkqb_S075HDp6gT5E-53" value="" style="group" vertex="1" connectable="0" parent="1">
          <mxGeometry x="475" y="195" width="252.5" height="80" as="geometry" />
        </mxCell>
        <mxCell id="TpiVkqb_S075HDp6gT5E-54" value="" style="group" vertex="1" connectable="0" parent="TpiVkqb_S075HDp6gT5E-53">
          <mxGeometry width="252.5" height="80" as="geometry" />
        </mxCell>
        <mxCell id="TpiVkqb_S075HDp6gT5E-55" value="«component»&lt;br&gt;&lt;b&gt;Persistence&lt;/b&gt;" style="html=1;dropTarget=0;whiteSpace=wrap;fillColor=#1ba1e2;fontColor=#ffffff;strokeColor=#000000;" vertex="1" parent="TpiVkqb_S075HDp6gT5E-54">
          <mxGeometry y="10" width="150" height="70" as="geometry" />
        </mxCell>
        <mxCell id="TpiVkqb_S075HDp6gT5E-56" value="" style="shape=module;jettyWidth=8;jettyHeight=4;fillColor=#1ba1e2;fontColor=#ffffff;strokeColor=#006EAF;" vertex="1" parent="TpiVkqb_S075HDp6gT5E-55">
          <mxGeometry x="1" width="20" height="20" relative="1" as="geometry">
            <mxPoint x="-27" y="7" as="offset" />
          </mxGeometry>
        </mxCell>
        <mxCell id="TpiVkqb_S075HDp6gT5E-57" value="Frameworks and Drivers Layer" style="text;html=1;align=center;verticalAlign=middle;resizable=0;points=[];autosize=1;strokeColor=none;fillColor=none;fontColor=#000000;fontStyle=1" vertex="1" parent="TpiVkqb_S075HDp6gT5E-54">
          <mxGeometry x="62.5" y="-20" width="190" height="30" as="geometry" />
        </mxCell>
        <mxCell id="TpiVkqb_S075HDp6gT5E-58" value="" style="group" vertex="1" connectable="0" parent="TpiVkqb_S075HDp6gT5E-54">
          <mxGeometry x="-40" width="150" height="80" as="geometry" />
        </mxCell>
        <mxCell id="TpiVkqb_S075HDp6gT5E-59" value="" style="group" vertex="1" connectable="0" parent="TpiVkqb_S075HDp6gT5E-58">
          <mxGeometry width="150" height="80" as="geometry" />
        </mxCell>
        <mxCell id="TpiVkqb_S075HDp6gT5E-60" value="" style="rounded=0;whiteSpace=wrap;html=1;fillColor=#1ba1e2;fontColor=#ffffff;strokeColor=#006EAF;rotation=-360;" vertex="1" parent="TpiVkqb_S075HDp6gT5E-59">
          <mxGeometry x="66.50481481481484" y="3.663137254901983" width="17" height="12.666666666666666" as="geometry" />
        </mxCell>
        <mxCell id="TpiVkqb_S075HDp6gT5E-61" value="" style="group" vertex="1" connectable="0" parent="1">
          <mxGeometry x="470" y="403" width="150" height="80" as="geometry" />
        </mxCell>
        <mxCell id="TpiVkqb_S075HDp6gT5E-62" value="" style="group" vertex="1" connectable="0" parent="TpiVkqb_S075HDp6gT5E-61">
          <mxGeometry width="150" height="80" as="geometry" />
        </mxCell>
        <mxCell id="TpiVkqb_S075HDp6gT5E-63" value="«component»&lt;br&gt;&lt;b&gt;Repository&lt;/b&gt;" style="html=1;dropTarget=0;whiteSpace=wrap;fillColor=#1ba1e2;fontColor=#ffffff;strokeColor=#000000;" vertex="1" parent="TpiVkqb_S075HDp6gT5E-62">
          <mxGeometry y="10" width="150" height="70" as="geometry" />
        </mxCell>
        <mxCell id="TpiVkqb_S075HDp6gT5E-64" value="" style="shape=module;jettyWidth=8;jettyHeight=4;fillColor=#1ba1e2;fontColor=#ffffff;strokeColor=#006EAF;" vertex="1" parent="TpiVkqb_S075HDp6gT5E-63">
          <mxGeometry x="1" width="20" height="20" relative="1" as="geometry">
            <mxPoint x="-27" y="7" as="offset" />
          </mxGeometry>
        </mxCell>
        <mxCell id="TpiVkqb_S075HDp6gT5E-65" value="" style="group" vertex="1" connectable="0" parent="1">
          <mxGeometry x="280" y="323" width="150" height="80" as="geometry" />
        </mxCell>
        <mxCell id="TpiVkqb_S075HDp6gT5E-66" value="" style="group" vertex="1" connectable="0" parent="TpiVkqb_S075HDp6gT5E-65">
          <mxGeometry x="15" y="-24.25" width="120" height="82" as="geometry" />
        </mxCell>
        <mxCell id="TpiVkqb_S075HDp6gT5E-67" value="«component»&lt;br&gt;&lt;b&gt;Data Model&lt;/b&gt;" style="html=1;dropTarget=0;whiteSpace=wrap;fillColor=#1ba1e2;fontColor=#ffffff;strokeColor=#000000;" vertex="1" parent="TpiVkqb_S075HDp6gT5E-66">
          <mxGeometry x="-10" y="42" width="130" height="40" as="geometry" />
        </mxCell>
        <mxCell id="TpiVkqb_S075HDp6gT5E-68" value="" style="shape=module;jettyWidth=8;jettyHeight=4;fillColor=#1ba1e2;fontColor=#ffffff;strokeColor=#006EAF;" vertex="1" parent="TpiVkqb_S075HDp6gT5E-66">
          <mxGeometry x="1" width="19" height="20" relative="1" as="geometry">
            <mxPoint x="-23" y="44" as="offset" />
          </mxGeometry>
        </mxCell>
        <mxCell id="TpiVkqb_S075HDp6gT5E-69" value="" style="group" vertex="1" connectable="0" parent="TpiVkqb_S075HDp6gT5E-65">
          <mxGeometry x="-30" y="-34.25" width="141" height="50" as="geometry" />
        </mxCell>
        <mxCell id="TpiVkqb_S075HDp6gT5E-70" value="" style="group" vertex="1" connectable="0" parent="TpiVkqb_S075HDp6gT5E-69">
          <mxGeometry x="1" y="-1" width="140" height="41" as="geometry" />
        </mxCell>
        <mxCell id="TpiVkqb_S075HDp6gT5E-71" value="«component»&lt;br&gt;&lt;b&gt;DTO&lt;/b&gt;" style="html=1;dropTarget=0;whiteSpace=wrap;fillColor=#1ba1e2;fontColor=#ffffff;strokeColor=#000000;" vertex="1" parent="TpiVkqb_S075HDp6gT5E-70">
          <mxGeometry y="5.125" width="140" height="35.875" as="geometry" />
        </mxCell>
        <mxCell id="TpiVkqb_S075HDp6gT5E-72" value="" style="shape=module;jettyWidth=8;jettyHeight=4;fillColor=#1ba1e2;fontColor=#ffffff;strokeColor=#006EAF;" vertex="1" parent="TpiVkqb_S075HDp6gT5E-71">
          <mxGeometry x="1" width="20" height="20" relative="1" as="geometry">
            <mxPoint x="-27" y="7" as="offset" />
          </mxGeometry>
        </mxCell>
        <mxCell id="TpiVkqb_S075HDp6gT5E-73" value="" style="rounded=0;orthogonalLoop=1;jettySize=auto;html=1;endArrow=oval;endFill=0;sketch=0;sourcePerimeterSpacing=0;targetPerimeterSpacing=0;endSize=10;exitX=0;exitY=0.5;exitDx=0;exitDy=0;strokeColor=#050505;" edge="1" parent="TpiVkqb_S075HDp6gT5E-70">
          <mxGeometry relative="1" as="geometry">
            <mxPoint y="26.914899999999946" as="sourcePoint" />
            <Array as="points" />
            <mxPoint x="-67.49999999999996" y="26.918999999999944" as="targetPoint" />
          </mxGeometry>
        </mxCell>
        <mxCell id="TpiVkqb_S075HDp6gT5E-74" value="DTO API" style="edgeLabel;html=1;align=center;verticalAlign=middle;resizable=0;points=[];labelBackgroundColor=none;fontSize=9;fontStyle=1" vertex="1" connectable="0" parent="TpiVkqb_S075HDp6gT5E-73">
          <mxGeometry x="0.0679" relative="1" as="geometry">
            <mxPoint as="offset" />
          </mxGeometry>
        </mxCell>
        <mxCell id="TpiVkqb_S075HDp6gT5E-75" value="" style="rounded=0;orthogonalLoop=1;jettySize=auto;html=1;endArrow=halfCircle;endFill=0;endSize=6;strokeWidth=1;sketch=0;strokeColor=#000000;entryX=0.99;entryY=0.942;entryDx=0;entryDy=0;entryPerimeter=0;exitX=0.263;exitY=0.002;exitDx=0;exitDy=0;exitPerimeter=0;" edge="1" parent="1" source="TpiVkqb_S075HDp6gT5E-63">
          <mxGeometry relative="1" as="geometry">
            <mxPoint x="510" y="410" as="sourcePoint" />
            <mxPoint x="510" y="352.99999999999994" as="targetPoint" />
            <Array as="points">
              <mxPoint x="509.6" y="393" />
              <mxPoint x="509.6" y="383" />
            </Array>
          </mxGeometry>
        </mxCell>
        <mxCell id="TpiVkqb_S075HDp6gT5E-76" value="" style="rounded=0;orthogonalLoop=1;jettySize=auto;html=1;endArrow=oval;endFill=0;sketch=0;sourcePerimeterSpacing=0;targetPerimeterSpacing=0;endSize=10;strokeColor=#080808;exitX=1;exitY=0.48;exitDx=0;exitDy=0;exitPerimeter=0;" edge="1" parent="1" source="TpiVkqb_S075HDp6gT5E-67" target="TpiVkqb_S075HDp6gT5E-78">
          <mxGeometry relative="1" as="geometry">
            <mxPoint x="420" y="360" as="sourcePoint" />
            <Array as="points">
              <mxPoint x="460" y="360" />
              <mxPoint x="460" y="349" />
            </Array>
          </mxGeometry>
        </mxCell>
        <mxCell id="TpiVkqb_S075HDp6gT5E-77" value="Data Model API" style="edgeLabel;html=1;align=center;verticalAlign=middle;resizable=0;points=[];fontSize=9;labelBackgroundColor=none;fontStyle=1" vertex="1" connectable="0" parent="TpiVkqb_S075HDp6gT5E-76">
          <mxGeometry x="-0.3043" y="-1" relative="1" as="geometry">
            <mxPoint x="8" y="-7" as="offset" />
          </mxGeometry>
        </mxCell>
        <mxCell id="TpiVkqb_S075HDp6gT5E-78" value="" style="ellipse;whiteSpace=wrap;html=1;align=center;aspect=fixed;fillColor=none;strokeColor=none;resizable=0;perimeter=centerPerimeter;rotatable=0;allowArrows=0;points=[];outlineConnect=1;" vertex="1" parent="1">
          <mxGeometry x="505" y="344" width="10" height="10" as="geometry" />
        </mxCell>
        <mxCell id="TpiVkqb_S075HDp6gT5E-79" style="edgeStyle=orthogonalEdgeStyle;rounded=0;orthogonalLoop=1;jettySize=auto;html=1;exitX=0.25;exitY=1;exitDx=0;exitDy=0;entryX=1.063;entryY=0.526;entryDx=0;entryDy=0;entryPerimeter=0;strokeColor=#000000;endArrow=halfCircle;endFill=0;" edge="1" parent="1" source="TpiVkqb_S075HDp6gT5E-55">
          <mxGeometry relative="1" as="geometry">
            <Array as="points">
              <mxPoint x="510" y="275" />
            </Array>
            <mxPoint x="517.5" y="294.99999999999994" as="sourcePoint" />
            <mxPoint x="510" y="344.99999999999994" as="targetPoint" />
          </mxGeometry>
        </mxCell>
        <mxCell id="TpiVkqb_S075HDp6gT5E-80" value="" style="rounded=0;orthogonalLoop=1;jettySize=auto;html=1;endArrow=halfCircle;endFill=0;endSize=6;strokeWidth=1;sketch=0;exitX=0.731;exitY=-0.016;exitDx=0;exitDy=0;strokeColor=#000000;exitPerimeter=0;" edge="1" parent="1" source="TpiVkqb_S075HDp6gT5E-63" target="TpiVkqb_S075HDp6gT5E-83">
          <mxGeometry relative="1" as="geometry">
            <mxPoint x="630" y="350" as="sourcePoint" />
          </mxGeometry>
        </mxCell>
        <mxCell id="TpiVkqb_S075HDp6gT5E-81" value="" style="rounded=0;orthogonalLoop=1;jettySize=auto;html=1;endArrow=oval;endFill=0;sketch=0;sourcePerimeterSpacing=0;targetPerimeterSpacing=0;endSize=10;exitX=0.7;exitY=1;exitDx=0;exitDy=0;exitPerimeter=0;strokeColor=#000000;" edge="1" parent="1" source="TpiVkqb_S075HDp6gT5E-55" target="TpiVkqb_S075HDp6gT5E-83">
          <mxGeometry relative="1" as="geometry">
            <mxPoint x="590" y="350" as="sourcePoint" />
          </mxGeometry>
        </mxCell>
        <mxCell id="TpiVkqb_S075HDp6gT5E-82" value="Persistence API" style="edgeLabel;html=1;align=center;verticalAlign=middle;resizable=0;points=[];fontStyle=1;labelBackgroundColor=none;fontSize=9;" vertex="1" connectable="0" parent="TpiVkqb_S075HDp6gT5E-81">
          <mxGeometry x="0.0833" relative="1" as="geometry">
            <mxPoint x="1" y="3" as="offset" />
          </mxGeometry>
        </mxCell>
        <mxCell id="TpiVkqb_S075HDp6gT5E-83" value="" style="ellipse;whiteSpace=wrap;html=1;align=center;aspect=fixed;fillColor=none;strokeColor=none;resizable=0;perimeter=centerPerimeter;rotatable=0;allowArrows=0;points=[];outlineConnect=1;" vertex="1" parent="1">
          <mxGeometry x="575" y="340" width="10" height="10" as="geometry" />
        </mxCell>
        <mxCell id="TpiVkqb_S075HDp6gT5E-84" value="" style="rounded=0;orthogonalLoop=1;jettySize=auto;html=1;endArrow=halfCircle;endFill=0;endSize=6;strokeWidth=1;sketch=0;exitX=1.002;exitY=0.462;exitDx=0;exitDy=0;strokeColor=#000000;exitPerimeter=0;" edge="1" parent="1" source="TpiVkqb_S075HDp6gT5E-31" target="TpiVkqb_S075HDp6gT5E-87">
          <mxGeometry relative="1" as="geometry">
            <mxPoint x="580" y="523" as="sourcePoint" />
            <Array as="points">
              <mxPoint x="505" y="620" />
            </Array>
          </mxGeometry>
        </mxCell>
        <mxCell id="TpiVkqb_S075HDp6gT5E-85" value="" style="rounded=0;orthogonalLoop=1;jettySize=auto;html=1;endArrow=oval;endFill=0;sketch=0;sourcePerimeterSpacing=0;targetPerimeterSpacing=0;endSize=10;exitX=0.232;exitY=0.998;exitDx=0;exitDy=0;strokeColor=#000000;exitPerimeter=0;" edge="1" parent="1" source="TpiVkqb_S075HDp6gT5E-63" target="TpiVkqb_S075HDp6gT5E-87">
          <mxGeometry relative="1" as="geometry">
            <mxPoint x="540" y="523" as="sourcePoint" />
          </mxGeometry>
        </mxCell>
        <mxCell id="TpiVkqb_S075HDp6gT5E-86" value="Repo API" style="edgeLabel;html=1;align=center;verticalAlign=middle;resizable=0;points=[];labelBackgroundColor=none;fontStyle=1" vertex="1" connectable="0" parent="TpiVkqb_S075HDp6gT5E-85">
          <mxGeometry x="0.1992" y="-1" relative="1" as="geometry">
            <mxPoint as="offset" />
          </mxGeometry>
        </mxCell>
        <mxCell id="TpiVkqb_S075HDp6gT5E-87" value="" style="ellipse;whiteSpace=wrap;html=1;align=center;aspect=fixed;fillColor=none;strokeColor=none;resizable=0;perimeter=centerPerimeter;rotatable=0;allowArrows=0;points=[];outlineConnect=1;" vertex="1" parent="1">
          <mxGeometry x="500" y="530" width="10" height="10" as="geometry" />
        </mxCell>
        <mxCell id="TpiVkqb_S075HDp6gT5E-88" style="edgeStyle=orthogonalEdgeStyle;rounded=0;orthogonalLoop=1;jettySize=auto;html=1;exitX=0.75;exitY=1;exitDx=0;exitDy=0;entryX=0.824;entryY=0.6;entryDx=0;entryDy=0;entryPerimeter=0;endArrow=halfCircle;endFill=0;strokeColor=#000000;" edge="1" parent="1">
          <mxGeometry relative="1" as="geometry">
            <Array as="points">
              <mxPoint x="587.5" y="695" />
            </Array>
            <mxPoint x="588" y="483" as="sourcePoint" />
            <mxPoint x="315.5" y="695" as="targetPoint" />
          </mxGeometry>
        </mxCell>
        <mxCell id="TpiVkqb_S075HDp6gT5E-89" style="edgeStyle=orthogonalEdgeStyle;rounded=0;orthogonalLoop=1;jettySize=auto;html=1;exitX=0.5;exitY=1;exitDx=0;exitDy=0;entryX=0.5;entryY=0;entryDx=0;entryDy=0;endArrow=none;endFill=0;strokeColor=#000000;" edge="1" parent="1" source="TpiVkqb_S075HDp6gT5E-90" target="TpiVkqb_S075HDp6gT5E-20">
          <mxGeometry relative="1" as="geometry" />
        </mxCell>
        <mxCell id="TpiVkqb_S075HDp6gT5E-90" value="" style="rounded=0;whiteSpace=wrap;html=1;fillColor=#1ba1e2;fontColor=#ffffff;strokeColor=#000000;" vertex="1" parent="1">
          <mxGeometry x="135.25" y="100" width="24.5" height="20" as="geometry" />
        </mxCell>
        <mxCell id="TpiVkqb_S075HDp6gT5E-91" value="" style="group" vertex="1" connectable="0" parent="1">
          <mxGeometry x="850" y="403" width="150" height="80" as="geometry" />
        </mxCell>
        <mxCell id="TpiVkqb_S075HDp6gT5E-92" value="" style="group" vertex="1" connectable="0" parent="TpiVkqb_S075HDp6gT5E-91">
          <mxGeometry width="150" height="80" as="geometry" />
        </mxCell>
        <mxCell id="TpiVkqb_S075HDp6gT5E-93" value="«component»&lt;br&gt;&lt;b&gt;Adapter&lt;/b&gt;" style="html=1;dropTarget=0;whiteSpace=wrap;fillColor=#1ba1e2;fontColor=#ffffff;strokeColor=#000000;" vertex="1" parent="TpiVkqb_S075HDp6gT5E-92">
          <mxGeometry y="10" width="150" height="70" as="geometry" />
        </mxCell>
        <mxCell id="TpiVkqb_S075HDp6gT5E-94" value="" style="shape=module;jettyWidth=8;jettyHeight=4;fillColor=#1ba1e2;fontColor=#ffffff;strokeColor=#006EAF;" vertex="1" parent="TpiVkqb_S075HDp6gT5E-93">
          <mxGeometry x="1" width="20" height="20" relative="1" as="geometry">
            <mxPoint x="-27" y="7" as="offset" />
          </mxGeometry>
        </mxCell>
        <mxCell id="TpiVkqb_S075HDp6gT5E-95" value="" style="rounded=0;orthogonalLoop=1;jettySize=auto;html=1;endArrow=halfCircle;endFill=0;endSize=6;strokeWidth=1;sketch=0;exitX=1.001;exitY=0.72;exitDx=0;exitDy=0;labelBackgroundColor=none;fontColor=none;noLabel=1;strokeColor=#080808;exitPerimeter=0;" edge="1" parent="1" source="TpiVkqb_S075HDp6gT5E-31">
          <mxGeometry relative="1" as="geometry">
            <mxPoint x="197.5" y="640.5" as="sourcePoint" />
            <Array as="points">
              <mxPoint x="925" y="638" />
              <mxPoint x="925" y="538" />
            </Array>
            <mxPoint x="925" y="538" as="targetPoint" />
          </mxGeometry>
        </mxCell>
        <mxCell id="TpiVkqb_S075HDp6gT5E-96" value="" style="rounded=0;orthogonalLoop=1;jettySize=auto;html=1;endArrow=oval;endFill=0;sketch=0;sourcePerimeterSpacing=0;targetPerimeterSpacing=0;endSize=10;exitX=0.547;exitY=1.01;exitDx=0;exitDy=0;labelBackgroundColor=none;fontColor=#050505;strokeColor=#000000;exitPerimeter=0;" edge="1" parent="1">
          <mxGeometry relative="1" as="geometry">
            <mxPoint x="925.05" y="483.70000000000005" as="sourcePoint" />
            <mxPoint x="925" y="535" as="targetPoint" />
          </mxGeometry>
        </mxCell>
        <mxCell id="TpiVkqb_S075HDp6gT5E-97" value="Adapter API" style="edgeLabel;html=1;align=center;verticalAlign=middle;resizable=0;points=[];labelBackgroundColor=none;fontStyle=1" vertex="1" connectable="0" parent="TpiVkqb_S075HDp6gT5E-96">
          <mxGeometry x="0.1417" y="-1" relative="1" as="geometry">
            <mxPoint as="offset" />
          </mxGeometry>
        </mxCell>
        <mxCell id="TpiVkqb_S075HDp6gT5E-98" value="" style="ellipse;whiteSpace=wrap;html=1;align=center;aspect=fixed;fillColor=none;strokeColor=none;resizable=0;perimeter=centerPerimeter;rotatable=0;allowArrows=0;points=[];outlineConnect=1;labelBackgroundColor=none;fontColor=#050505;" vertex="1" parent="1">
          <mxGeometry x="944" y="530" width="10" height="10" as="geometry" />
        </mxCell>
        <mxCell id="TpiVkqb_S075HDp6gT5E-99" value="" style="group" vertex="1" connectable="0" parent="1">
          <mxGeometry x="1060" y="190" width="150" height="80" as="geometry" />
        </mxCell>
        <mxCell id="TpiVkqb_S075HDp6gT5E-100" value="" style="group" vertex="1" connectable="0" parent="TpiVkqb_S075HDp6gT5E-99">
          <mxGeometry width="150" height="80" as="geometry" />
        </mxCell>
        <mxCell id="TpiVkqb_S075HDp6gT5E-101" value="«component»&lt;br&gt;&lt;b&gt;Email Driver&lt;/b&gt;" style="html=1;dropTarget=0;whiteSpace=wrap;fillColor=#1ba1e2;fontColor=#ffffff;strokeColor=#000000;" vertex="1" parent="TpiVkqb_S075HDp6gT5E-100">
          <mxGeometry y="10" width="150" height="70" as="geometry" />
        </mxCell>
        <mxCell id="TpiVkqb_S075HDp6gT5E-102" value="" style="shape=module;jettyWidth=8;jettyHeight=4;fillColor=#1ba1e2;fontColor=#ffffff;strokeColor=#006EAF;" vertex="1" parent="TpiVkqb_S075HDp6gT5E-101">
          <mxGeometry x="1" width="20" height="20" relative="1" as="geometry">
            <mxPoint x="-27" y="7" as="offset" />
          </mxGeometry>
        </mxCell>
        <mxCell id="TpiVkqb_S075HDp6gT5E-103" value="" style="rounded=0;whiteSpace=wrap;html=1;fillColor=#1ba1e2;fontColor=#ffffff;strokeColor=#006EAF;rotation=-360;" vertex="1" parent="TpiVkqb_S075HDp6gT5E-100">
          <mxGeometry x="66.50481481481484" y="3.663137254901983" width="17" height="12.666666666666666" as="geometry" />
        </mxCell>
        <mxCell id="TpiVkqb_S075HDp6gT5E-104" value="" style="rounded=0;orthogonalLoop=1;jettySize=auto;html=1;endArrow=oval;endFill=0;sketch=0;sourcePerimeterSpacing=0;targetPerimeterSpacing=0;endSize=10;exitX=0.086;exitY=0.994;exitDx=0;exitDy=0;strokeColor=#000000;exitPerimeter=0;entryX=0.719;entryY=0.719;entryDx=0;entryDy=0;entryPerimeter=0;" edge="1" parent="1" source="TpiVkqb_S075HDp6gT5E-101" target="TpiVkqb_S075HDp6gT5E-136">
          <mxGeometry relative="1" as="geometry">
            <mxPoint x="794.65" y="300" as="sourcePoint" />
            <mxPoint x="860" y="360" as="targetPoint" />
            <Array as="points" />
          </mxGeometry>
        </mxCell>
        <mxCell id="TpiVkqb_S075HDp6gT5E-105" value="Email Driver&lt;div&gt;API&lt;/div&gt;" style="edgeLabel;html=1;align=center;verticalAlign=middle;resizable=0;points=[];labelBackgroundColor=none;fontStyle=1" vertex="1" connectable="0" parent="TpiVkqb_S075HDp6gT5E-104">
          <mxGeometry x="0.1524" relative="1" as="geometry">
            <mxPoint x="-4" y="7" as="offset" />
          </mxGeometry>
        </mxCell>
        <mxCell id="TpiVkqb_S075HDp6gT5E-106" value="" style="ellipse;whiteSpace=wrap;html=1;align=center;aspect=fixed;fillColor=none;strokeColor=none;resizable=0;perimeter=centerPerimeter;rotatable=0;allowArrows=0;points=[];outlineConnect=1;" vertex="1" parent="1">
          <mxGeometry x="813.5" y="355" width="10" height="10" as="geometry" />
        </mxCell>
        <mxCell id="TpiVkqb_S075HDp6gT5E-107" value="" style="group" vertex="1" connectable="0" parent="1">
          <mxGeometry x="1170" y="320" width="140" height="50" as="geometry" />
        </mxCell>
        <mxCell id="TpiVkqb_S075HDp6gT5E-108" value="" style="group" vertex="1" connectable="0" parent="TpiVkqb_S075HDp6gT5E-107">
          <mxGeometry width="139.99999999999997" height="50" as="geometry" />
        </mxCell>
        <mxCell id="TpiVkqb_S075HDp6gT5E-109" value="«component»&lt;br&gt;&lt;b&gt;DTO&lt;br&gt;External-Internal&lt;/b&gt;" style="html=1;dropTarget=0;whiteSpace=wrap;fillColor=#1ba1e2;fontColor=#ffffff;strokeColor=#000000;" vertex="1" parent="TpiVkqb_S075HDp6gT5E-108">
          <mxGeometry y="6.25" width="139.99999999999997" height="43.75" as="geometry" />
        </mxCell>
        <mxCell id="TpiVkqb_S075HDp6gT5E-110" value="" style="shape=module;jettyWidth=8;jettyHeight=4;fillColor=#1ba1e2;fontColor=#ffffff;strokeColor=#006EAF;" vertex="1" parent="TpiVkqb_S075HDp6gT5E-109">
          <mxGeometry x="1" width="20" height="20" relative="1" as="geometry">
            <mxPoint x="-27" y="7" as="offset" />
          </mxGeometry>
        </mxCell>
        <mxCell id="TpiVkqb_S075HDp6gT5E-111" value="" style="rounded=0;orthogonalLoop=1;jettySize=auto;html=1;endArrow=halfCircle;endFill=0;endSize=6;strokeWidth=1;sketch=0;fontSize=12;curved=1;strokeColor=#000000;exitX=0.267;exitY=1.001;exitDx=0;exitDy=0;exitPerimeter=0;" edge="1" parent="1" source="TpiVkqb_S075HDp6gT5E-101">
          <mxGeometry relative="1" as="geometry">
            <mxPoint x="1044.5" y="251.22" as="sourcePoint" />
            <mxPoint x="1061" y="355" as="targetPoint" />
            <Array as="points">
              <mxPoint x="1100" y="270" />
              <mxPoint x="1100" y="280" />
              <mxPoint x="1071" y="315" />
            </Array>
          </mxGeometry>
        </mxCell>
        <mxCell id="TpiVkqb_S075HDp6gT5E-112" value="" style="rounded=0;orthogonalLoop=1;jettySize=auto;html=1;endArrow=halfCircle;endFill=0;endSize=6;strokeWidth=1;sketch=0;exitX=0.736;exitY=0.02;exitDx=0;exitDy=0;strokeColor=#121212;exitPerimeter=0;" edge="1" parent="1" source="TpiVkqb_S075HDp6gT5E-8">
          <mxGeometry relative="1" as="geometry">
            <mxPoint x="182.45" y="401.15999999999997" as="sourcePoint" />
            <mxPoint x="183.25" y="318.25" as="targetPoint" />
            <Array as="points">
              <mxPoint x="183" y="363.25" />
              <mxPoint x="183.25" y="345.12" />
              <mxPoint x="183.25" y="330.12" />
            </Array>
          </mxGeometry>
        </mxCell>
        <mxCell id="TpiVkqb_S075HDp6gT5E-113" style="edgeStyle=orthogonalEdgeStyle;rounded=0;orthogonalLoop=1;jettySize=auto;html=1;entryX=0.136;entryY=0.144;entryDx=0;entryDy=0;entryPerimeter=0;endArrow=halfCircle;endFill=0;strokeColor=#000000;exitX=0.399;exitY=1.003;exitDx=0;exitDy=0;exitPerimeter=0;" edge="1" parent="1" source="TpiVkqb_S075HDp6gT5E-18">
          <mxGeometry relative="1" as="geometry">
            <Array as="points">
              <mxPoint x="130" y="300" />
              <mxPoint x="183" y="300" />
              <mxPoint x="183" y="313" />
            </Array>
            <mxPoint x="130" y="280" as="sourcePoint" />
            <mxPoint x="182.50000000000006" y="313.2" as="targetPoint" />
          </mxGeometry>
        </mxCell>
        <mxCell id="TpiVkqb_S075HDp6gT5E-114" value="" style="group" vertex="1" connectable="0" parent="1">
          <mxGeometry x="880" y="190" width="150" height="80" as="geometry" />
        </mxCell>
        <mxCell id="TpiVkqb_S075HDp6gT5E-115" value="" style="group" vertex="1" connectable="0" parent="TpiVkqb_S075HDp6gT5E-114">
          <mxGeometry width="150" height="80" as="geometry" />
        </mxCell>
        <mxCell id="TpiVkqb_S075HDp6gT5E-116" value="«component»&lt;br&gt;&lt;b&gt;Authentication Driver&lt;/b&gt;" style="html=1;dropTarget=0;whiteSpace=wrap;fillColor=#1ba1e2;fontColor=#ffffff;strokeColor=#000000;" vertex="1" parent="TpiVkqb_S075HDp6gT5E-115">
          <mxGeometry y="10" width="150" height="70" as="geometry" />
        </mxCell>
        <mxCell id="TpiVkqb_S075HDp6gT5E-117" value="" style="shape=module;jettyWidth=8;jettyHeight=4;fillColor=#1ba1e2;fontColor=#ffffff;strokeColor=#006EAF;" vertex="1" parent="TpiVkqb_S075HDp6gT5E-116">
          <mxGeometry x="1" width="20" height="20" relative="1" as="geometry">
            <mxPoint x="-27" y="7" as="offset" />
          </mxGeometry>
        </mxCell>
        <mxCell id="TpiVkqb_S075HDp6gT5E-118" value="" style="rounded=0;whiteSpace=wrap;html=1;fillColor=#1ba1e2;fontColor=#ffffff;strokeColor=#006EAF;rotation=-360;" vertex="1" parent="TpiVkqb_S075HDp6gT5E-115">
          <mxGeometry x="66.50481481481484" y="3.663137254901983" width="17" height="12.666666666666666" as="geometry" />
        </mxCell>
        <mxCell id="TpiVkqb_S075HDp6gT5E-119" value="" style="group" vertex="1" connectable="0" parent="1">
          <mxGeometry x="1126.5048148148148" y="53.84313725490192" width="17" height="66.15686274509807" as="geometry" />
        </mxCell>
        <mxCell id="TpiVkqb_S075HDp6gT5E-120" value="" style="group;rotation=-180;" vertex="1" connectable="0" parent="TpiVkqb_S075HDp6gT5E-119">
          <mxGeometry width="17" height="66.15686274509807" as="geometry" />
        </mxCell>
        <mxCell id="TpiVkqb_S075HDp6gT5E-121" value="" style="edgeStyle=orthogonalEdgeStyle;rounded=0;orthogonalLoop=1;jettySize=auto;html=1;entryX=0.5;entryY=0;entryDx=0;entryDy=0;endArrow=none;endFill=0;fontColor=#000000;strokeColor=#000000;startArrow=halfCircle;startFill=0;strokeWidth=3;endSize=6;jumpSize=6;" edge="1" parent="TpiVkqb_S075HDp6gT5E-120">
          <mxGeometry relative="1" as="geometry">
            <mxPoint x="7.995185185185164" y="-15.923137254901917" as="sourcePoint" />
            <mxPoint x="8" y="53" as="targetPoint" />
          </mxGeometry>
        </mxCell>
        <mxCell id="TpiVkqb_S075HDp6gT5E-122" value="Public Email API" style="edgeLabel;html=1;align=center;verticalAlign=middle;resizable=0;points=[];labelBackgroundColor=none;rotation=0;fontStyle=1" vertex="1" connectable="0" parent="TpiVkqb_S075HDp6gT5E-121">
          <mxGeometry x="-0.146" relative="1" as="geometry">
            <mxPoint y="1" as="offset" />
          </mxGeometry>
        </mxCell>
        <mxCell id="TpiVkqb_S075HDp6gT5E-123" value="" style="rounded=0;whiteSpace=wrap;html=1;fillColor=#1ba1e2;fontColor=#ffffff;strokeColor=#006EAF;rotation=-360;" vertex="1" parent="TpiVkqb_S075HDp6gT5E-120">
          <mxGeometry y="53.49" width="17" height="12.666666666666666" as="geometry" />
        </mxCell>
        <mxCell id="TpiVkqb_S075HDp6gT5E-124" value="" style="group" vertex="1" connectable="0" parent="1">
          <mxGeometry x="946.5048148148148" y="67.00313725490192" width="17" height="66.15686274509807" as="geometry" />
        </mxCell>
        <mxCell id="TpiVkqb_S075HDp6gT5E-125" value="" style="group;rotation=-180;" vertex="1" connectable="0" parent="TpiVkqb_S075HDp6gT5E-124">
          <mxGeometry width="17" height="66.15686274509807" as="geometry" />
        </mxCell>
        <mxCell id="TpiVkqb_S075HDp6gT5E-126" value="" style="edgeStyle=orthogonalEdgeStyle;rounded=0;orthogonalLoop=1;jettySize=auto;html=1;entryX=0.5;entryY=0;entryDx=0;entryDy=0;endArrow=none;endFill=0;fontColor=#000000;strokeColor=#000000;startArrow=halfCircle;startFill=0;strokeWidth=3;endSize=6;jumpSize=6;" edge="1" parent="TpiVkqb_S075HDp6gT5E-125">
          <mxGeometry relative="1" as="geometry">
            <mxPoint x="7.995185185185164" y="-15.923137254901917" as="sourcePoint" />
            <mxPoint x="8" y="53" as="targetPoint" />
          </mxGeometry>
        </mxCell>
        <mxCell id="TpiVkqb_S075HDp6gT5E-127" value="Public Auth API" style="edgeLabel;html=1;align=center;verticalAlign=middle;resizable=0;points=[];labelBackgroundColor=none;rotation=0;fontStyle=1" vertex="1" connectable="0" parent="TpiVkqb_S075HDp6gT5E-126">
          <mxGeometry x="-0.146" relative="1" as="geometry">
            <mxPoint y="1" as="offset" />
          </mxGeometry>
        </mxCell>
        <mxCell id="TpiVkqb_S075HDp6gT5E-128" value="" style="rounded=0;whiteSpace=wrap;html=1;fillColor=#1ba1e2;fontColor=#ffffff;strokeColor=#006EAF;rotation=-360;" vertex="1" parent="TpiVkqb_S075HDp6gT5E-125">
          <mxGeometry y="46" width="17" height="12.666666666666666" as="geometry" />
        </mxCell>
        <mxCell id="TpiVkqb_S075HDp6gT5E-129" style="edgeStyle=orthogonalEdgeStyle;rounded=0;orthogonalLoop=1;jettySize=auto;html=1;endArrow=none;endFill=0;strokeColor=#000000;entryX=0.5;entryY=0;entryDx=0;entryDy=0;" edge="1" parent="1" source="TpiVkqb_S075HDp6gT5E-128" target="TpiVkqb_S075HDp6gT5E-118">
          <mxGeometry relative="1" as="geometry">
            <Array as="points" />
            <mxPoint x="800" y="205.15999999999997" as="targetPoint" />
          </mxGeometry>
        </mxCell>
        <mxCell id="TpiVkqb_S075HDp6gT5E-130" value="" style="ellipse;whiteSpace=wrap;html=1;align=center;aspect=fixed;fillColor=none;strokeColor=none;resizable=0;perimeter=centerPerimeter;rotatable=0;allowArrows=0;points=[];outlineConnect=1;" vertex="1" parent="1">
          <mxGeometry x="750" y="380" width="10" height="10" as="geometry" />
        </mxCell>
        <mxCell id="TpiVkqb_S075HDp6gT5E-131" value="" style="rounded=0;orthogonalLoop=1;jettySize=auto;html=1;endArrow=halfCircle;endFill=0;endSize=6;strokeWidth=1;sketch=0;strokeColor=#000000;exitX=0.39;exitY=-0.019;exitDx=0;exitDy=0;exitPerimeter=0;entryX=0.36;entryY=1.326;entryDx=0;entryDy=0;entryPerimeter=0;" edge="1" parent="1" source="TpiVkqb_S075HDp6gT5E-93" target="TpiVkqb_S075HDp6gT5E-133">
          <mxGeometry relative="1" as="geometry">
            <mxPoint x="936.55" y="413.06999999999994" as="sourcePoint" />
            <mxPoint x="910" y="360" as="targetPoint" />
          </mxGeometry>
        </mxCell>
        <mxCell id="TpiVkqb_S075HDp6gT5E-132" value="" style="rounded=0;orthogonalLoop=1;jettySize=auto;html=1;endArrow=oval;endFill=0;sketch=0;sourcePerimeterSpacing=0;targetPerimeterSpacing=0;endSize=10;exitX=0.246;exitY=1.024;exitDx=0;exitDy=0;exitPerimeter=0;strokeColor=#000000;" edge="1" parent="1" source="TpiVkqb_S075HDp6gT5E-116" target="TpiVkqb_S075HDp6gT5E-133">
          <mxGeometry relative="1" as="geometry">
            <mxPoint x="820" y="365" as="sourcePoint" />
          </mxGeometry>
        </mxCell>
        <mxCell id="TpiVkqb_S075HDp6gT5E-133" value="" style="ellipse;whiteSpace=wrap;html=1;align=center;aspect=fixed;fillColor=none;strokeColor=#000000;resizable=0;perimeter=centerPerimeter;rotatable=0;allowArrows=0;points=[];outlineConnect=1;" vertex="1" parent="1">
          <mxGeometry x="900" y="344" width="10" height="10" as="geometry" />
        </mxCell>
        <mxCell id="TpiVkqb_S075HDp6gT5E-134" value="Authentication&lt;div&gt;&lt;span style=&quot;background-color: initial;&quot;&gt;Driver API&lt;/span&gt;&lt;/div&gt;" style="edgeLabel;html=1;align=center;verticalAlign=middle;resizable=0;points=[];labelBackgroundColor=none;fontStyle=1" vertex="1" connectable="0" parent="1">
          <mxGeometry x="899.9986915587348" y="310.00481807271007" as="geometry" />
        </mxCell>
        <mxCell id="TpiVkqb_S075HDp6gT5E-135" value="" style="rounded=0;orthogonalLoop=1;jettySize=auto;html=1;endArrow=halfCircle;endFill=0;endSize=6;strokeWidth=1;sketch=0;fontSize=12;curved=1;strokeColor=#000000;" edge="1" parent="1">
          <mxGeometry relative="1" as="geometry">
            <mxPoint x="960" y="270" as="sourcePoint" />
            <mxPoint x="1051" y="361" as="targetPoint" />
            <Array as="points">
              <mxPoint x="950" y="330" />
              <mxPoint x="950" y="360" />
            </Array>
          </mxGeometry>
        </mxCell>
        <mxCell id="TpiVkqb_S075HDp6gT5E-136" value="" style="ellipse;whiteSpace=wrap;html=1;align=center;aspect=fixed;fillColor=none;strokeColor=none;resizable=0;perimeter=centerPerimeter;rotatable=0;allowArrows=0;points=[];outlineConnect=1;" vertex="1" parent="1">
          <mxGeometry x="1000" y="320" width="10" height="10" as="geometry" />
        </mxCell>
        <mxCell id="TpiVkqb_S075HDp6gT5E-137" value="" style="rounded=0;orthogonalLoop=1;jettySize=auto;html=1;endArrow=halfCircle;endFill=0;endSize=6;strokeWidth=1;sketch=0;strokeColor=#0A0A0A;entryX=0.369;entryY=1.277;entryDx=0;entryDy=0;entryPerimeter=0;exitX=0.805;exitY=0.004;exitDx=0;exitDy=0;exitPerimeter=0;" edge="1" parent="1" source="TpiVkqb_S075HDp6gT5E-93">
          <mxGeometry relative="1" as="geometry">
            <mxPoint x="970" y="410" as="sourcePoint" />
            <mxPoint x="1002.5" y="330" as="targetPoint" />
          </mxGeometry>
        </mxCell>
        <mxCell id="TpiVkqb_S075HDp6gT5E-138" value="" style="rounded=0;orthogonalLoop=1;jettySize=auto;html=1;endArrow=halfCircle;endFill=0;endSize=6;strokeWidth=1;sketch=0;fontSize=12;curved=1;strokeColor=#030303;" edge="1" parent="1">
          <mxGeometry relative="1" as="geometry">
            <mxPoint x="1000" y="450" as="sourcePoint" />
            <mxPoint x="1060.5" y="367" as="targetPoint" />
            <Array as="points">
              <mxPoint x="1080" y="423" />
              <mxPoint x="1060.5" y="367" />
            </Array>
          </mxGeometry>
        </mxCell>
        <mxCell id="TpiVkqb_S075HDp6gT5E-139" value="" style="ellipse;whiteSpace=wrap;html=1;align=center;aspect=fixed;fillColor=none;strokeColor=none;resizable=0;perimeter=centerPerimeter;rotatable=0;allowArrows=0;points=[];outlineConnect=1;" vertex="1" parent="1">
          <mxGeometry x="950" y="360" width="10" height="10" as="geometry" />
        </mxCell>
        <mxCell id="TpiVkqb_S075HDp6gT5E-140" value="" style="rounded=0;orthogonalLoop=1;jettySize=auto;html=1;endArrow=oval;endFill=0;sketch=0;sourcePerimeterSpacing=0;targetPerimeterSpacing=0;endSize=10;strokeColor=#000000;exitX=0;exitY=0.75;exitDx=0;exitDy=0;" edge="1" parent="1" source="TpiVkqb_S075HDp6gT5E-109">
          <mxGeometry relative="1" as="geometry">
            <mxPoint x="990" y="360" as="sourcePoint" />
            <mxPoint x="1060" y="360" as="targetPoint" />
          </mxGeometry>
        </mxCell>
        <mxCell id="TpiVkqb_S075HDp6gT5E-141" value="DTO&lt;div&gt;API&lt;/div&gt;" style="edgeLabel;html=1;align=center;verticalAlign=middle;resizable=0;points=[];fontStyle=1;labelBackgroundColor=none;fontSize=9;" vertex="1" connectable="0" parent="TpiVkqb_S075HDp6gT5E-140">
          <mxGeometry x="0.0833" relative="1" as="geometry">
            <mxPoint x="6" as="offset" />
          </mxGeometry>
        </mxCell>
        <mxCell id="TpiVkqb_S075HDp6gT5E-142" style="edgeStyle=orthogonalEdgeStyle;rounded=0;orthogonalLoop=1;jettySize=auto;html=1;endArrow=none;endFill=0;strokeColor=#000000;entryX=0.5;entryY=0;entryDx=0;entryDy=0;exitX=0.5;exitY=1;exitDx=0;exitDy=0;" edge="1" parent="1" source="TpiVkqb_S075HDp6gT5E-123" target="TpiVkqb_S075HDp6gT5E-103">
          <mxGeometry relative="1" as="geometry">
            <Array as="points" />
            <mxPoint x="970" y="199" as="targetPoint" />
            <mxPoint x="1130" y="120" as="sourcePoint" />
          </mxGeometry>
        </mxCell>
        <mxCell id="TpiVkqb_S075HDp6gT5E-143" value="" style="group" vertex="1" connectable="0" parent="1">
          <mxGeometry x="776.5048148148148" y="70.00313725490192" width="17" height="66.15686274509807" as="geometry" />
        </mxCell>
        <mxCell id="TpiVkqb_S075HDp6gT5E-144" value="" style="group;rotation=-180;" vertex="1" connectable="0" parent="TpiVkqb_S075HDp6gT5E-143">
          <mxGeometry width="17" height="66.15686274509807" as="geometry" />
        </mxCell>
        <mxCell id="TpiVkqb_S075HDp6gT5E-145" value="" style="edgeStyle=orthogonalEdgeStyle;rounded=0;orthogonalLoop=1;jettySize=auto;html=1;entryX=0.5;entryY=0;entryDx=0;entryDy=0;endArrow=none;endFill=0;fontColor=#000000;strokeColor=#000000;startArrow=halfCircle;startFill=0;strokeWidth=3;endSize=6;jumpSize=6;" edge="1" parent="TpiVkqb_S075HDp6gT5E-144">
          <mxGeometry relative="1" as="geometry">
            <mxPoint x="7.995185185185164" y="-15.923137254901917" as="sourcePoint" />
            <mxPoint x="8" y="53" as="targetPoint" />
          </mxGeometry>
        </mxCell>
        <mxCell id="TpiVkqb_S075HDp6gT5E-146" value="Planning API" style="edgeLabel;html=1;align=center;verticalAlign=middle;resizable=0;points=[];labelBackgroundColor=none;rotation=0;fontStyle=1" vertex="1" connectable="0" parent="TpiVkqb_S075HDp6gT5E-145">
          <mxGeometry x="-0.146" relative="1" as="geometry">
            <mxPoint y="1" as="offset" />
          </mxGeometry>
        </mxCell>
        <mxCell id="TpiVkqb_S075HDp6gT5E-147" value="" style="rounded=0;whiteSpace=wrap;html=1;fillColor=#1ba1e2;fontColor=#ffffff;strokeColor=#006EAF;rotation=-360;" vertex="1" parent="TpiVkqb_S075HDp6gT5E-144">
          <mxGeometry y="43" width="17" height="12.666666666666666" as="geometry" />
        </mxCell>
        <mxCell id="TpiVkqb_S075HDp6gT5E-148" style="edgeStyle=orthogonalEdgeStyle;rounded=0;orthogonalLoop=1;jettySize=auto;html=1;endArrow=none;endFill=0;strokeColor=#000000;entryX=0;entryY=0.5;entryDx=0;entryDy=0;exitX=0.469;exitY=0.981;exitDx=0;exitDy=0;exitPerimeter=0;" edge="1" parent="1" source="TpiVkqb_S075HDp6gT5E-151" target="TpiVkqb_S075HDp6gT5E-93">
          <mxGeometry relative="1" as="geometry">
            <Array as="points" />
            <mxPoint x="795.0048148148151" y="193.66313725490204" as="targetPoint" />
            <mxPoint x="790" y="290" as="sourcePoint" />
          </mxGeometry>
        </mxCell>
        <mxCell id="TpiVkqb_S075HDp6gT5E-149" value="" style="group" vertex="1" connectable="0" parent="1">
          <mxGeometry x="710" y="190" width="150" height="80" as="geometry" />
        </mxCell>
        <mxCell id="TpiVkqb_S075HDp6gT5E-150" value="" style="group" vertex="1" connectable="0" parent="TpiVkqb_S075HDp6gT5E-149">
          <mxGeometry width="150" height="80" as="geometry" />
        </mxCell>
        <mxCell id="TpiVkqb_S075HDp6gT5E-151" value="«component»&lt;br&gt;&lt;b&gt;Planning Driver&lt;/b&gt;" style="html=1;dropTarget=0;whiteSpace=wrap;fillColor=#1ba1e2;fontColor=#ffffff;strokeColor=#000000;" vertex="1" parent="TpiVkqb_S075HDp6gT5E-150">
          <mxGeometry y="10" width="150" height="70" as="geometry" />
        </mxCell>
        <mxCell id="TpiVkqb_S075HDp6gT5E-152" value="" style="shape=module;jettyWidth=8;jettyHeight=4;fillColor=#1ba1e2;fontColor=#ffffff;strokeColor=#006EAF;" vertex="1" parent="TpiVkqb_S075HDp6gT5E-151">
          <mxGeometry x="1" width="20" height="20" relative="1" as="geometry">
            <mxPoint x="-27" y="7" as="offset" />
          </mxGeometry>
        </mxCell>
        <mxCell id="TpiVkqb_S075HDp6gT5E-153" value="" style="rounded=0;whiteSpace=wrap;html=1;fillColor=#1ba1e2;fontColor=#ffffff;strokeColor=#006EAF;rotation=-360;" vertex="1" parent="TpiVkqb_S075HDp6gT5E-150">
          <mxGeometry x="66.50481481481484" y="3.663137254901983" width="17" height="12.666666666666666" as="geometry" />
        </mxCell>
        <mxCell id="TpiVkqb_S075HDp6gT5E-154" style="edgeStyle=orthogonalEdgeStyle;rounded=0;orthogonalLoop=1;jettySize=auto;html=1;endArrow=none;endFill=0;strokeColor=#000000;entryX=0.5;entryY=0;entryDx=0;entryDy=0;" edge="1" parent="1">
          <mxGeometry relative="1" as="geometry">
            <Array as="points" />
            <mxPoint x="784.67" y="194" as="targetPoint" />
            <mxPoint x="784.67" y="126" as="sourcePoint" />
          </mxGeometry>
        </mxCell>
        <mxCell id="TpiVkqb_S075HDp6gT5E-155" value="" style="group" vertex="1" connectable="0" parent="1">
          <mxGeometry x="501.50481481481484" y="70.00313725490192" width="17" height="66.15686274509807" as="geometry" />
        </mxCell>
        <mxCell id="TpiVkqb_S075HDp6gT5E-156" value="" style="group;rotation=-180;" vertex="1" connectable="0" parent="TpiVkqb_S075HDp6gT5E-155">
          <mxGeometry width="17" height="66.15686274509807" as="geometry" />
        </mxCell>
        <mxCell id="TpiVkqb_S075HDp6gT5E-157" value="" style="edgeStyle=orthogonalEdgeStyle;rounded=0;orthogonalLoop=1;jettySize=auto;html=1;entryX=0.5;entryY=0;entryDx=0;entryDy=0;endArrow=none;endFill=0;fontColor=#000000;strokeColor=#000000;startArrow=halfCircle;startFill=0;strokeWidth=3;endSize=6;jumpSize=6;" edge="1" parent="TpiVkqb_S075HDp6gT5E-156">
          <mxGeometry relative="1" as="geometry">
            <mxPoint x="7.995185185185164" y="-15.923137254901917" as="sourcePoint" />
            <mxPoint x="8" y="53" as="targetPoint" />
          </mxGeometry>
        </mxCell>
        <mxCell id="TpiVkqb_S075HDp6gT5E-158" value="Persistence API" style="edgeLabel;html=1;align=center;verticalAlign=middle;resizable=0;points=[];labelBackgroundColor=none;rotation=0;fontStyle=1" vertex="1" connectable="0" parent="TpiVkqb_S075HDp6gT5E-157">
          <mxGeometry x="-0.146" relative="1" as="geometry">
            <mxPoint y="1" as="offset" />
          </mxGeometry>
        </mxCell>
        <mxCell id="TpiVkqb_S075HDp6gT5E-159" value="" style="rounded=0;whiteSpace=wrap;html=1;fillColor=#1ba1e2;fontColor=#ffffff;strokeColor=#006EAF;rotation=-360;" vertex="1" parent="TpiVkqb_S075HDp6gT5E-156">
          <mxGeometry y="43" width="17" height="12.666666666666666" as="geometry" />
        </mxCell>
        <mxCell id="TpiVkqb_S075HDp6gT5E-160" style="edgeStyle=orthogonalEdgeStyle;rounded=0;orthogonalLoop=1;jettySize=auto;html=1;endArrow=none;endFill=0;strokeColor=#000000;entryX=0.5;entryY=0;entryDx=0;entryDy=0;" edge="1" parent="1" target="TpiVkqb_S075HDp6gT5E-60">
          <mxGeometry relative="1" as="geometry">
            <Array as="points" />
            <mxPoint x="509.66999999999996" y="194" as="targetPoint" />
            <mxPoint x="509.66999999999996" y="126" as="sourcePoint" />
          </mxGeometry>
        </mxCell>
        <mxCell id="TpiVkqb_S075HDp6gT5E-161" value="MDBackoffice" style="shape=folder;fontStyle=1;spacingTop=10;tabWidth=40;tabHeight=14;tabPosition=left;html=1;whiteSpace=wrap;fillColor=#1BA1E2;labelPosition=center;verticalLabelPosition=top;align=center;verticalAlign=bottom;spacing=-35;strokeColor=#030303;" vertex="1" parent="1">
          <mxGeometry x="485" y="1040" width="600" height="730" as="geometry" />
        </mxCell>
        <mxCell id="TpiVkqb_S075HDp6gT5E-162" value="Infrastructure" style="shape=folder;fontStyle=1;spacingTop=10;tabWidth=40;tabHeight=14;tabPosition=left;html=1;whiteSpace=wrap;fillColor=#1BA1E2;labelPosition=center;verticalLabelPosition=top;align=center;verticalAlign=bottom;spacing=-31;strokeColor=#030303;" vertex="1" parent="1">
          <mxGeometry x="525" y="1080" width="520" height="120" as="geometry" />
        </mxCell>
        <mxCell id="TpiVkqb_S075HDp6gT5E-163" value="Routes" style="shape=folder;fontStyle=1;spacingTop=10;tabWidth=40;tabHeight=14;tabPosition=left;html=1;whiteSpace=wrap;fillColor=#1BA1E2;labelPosition=center;verticalLabelPosition=top;align=center;verticalAlign=bottom;spacing=-31;strokeColor=#030303;" vertex="1" parent="1">
          <mxGeometry x="545" y="1110" width="150" height="70" as="geometry" />
        </mxCell>
        <mxCell id="TpiVkqb_S075HDp6gT5E-164" value="Persistence" style="shape=folder;fontStyle=1;spacingTop=10;tabWidth=40;tabHeight=14;tabPosition=left;html=1;whiteSpace=wrap;fillColor=#1BA1E2;labelPosition=center;verticalLabelPosition=top;align=center;verticalAlign=bottom;spacing=-31;strokeColor=#030303;" vertex="1" parent="1">
          <mxGeometry x="875" y="1110" width="150" height="70" as="geometry" />
        </mxCell>
        <mxCell id="TpiVkqb_S075HDp6gT5E-165" value="Interface Adapters" style="shape=folder;fontStyle=1;spacingTop=10;tabWidth=40;tabHeight=14;tabPosition=left;html=1;whiteSpace=wrap;fillColor=#1BA1E2;labelPosition=center;verticalLabelPosition=top;align=center;verticalAlign=bottom;spacing=-31;strokeColor=#030303;" vertex="1" parent="1">
          <mxGeometry x="525" y="1250" width="520" height="120" as="geometry" />
        </mxCell>
        <mxCell id="TpiVkqb_S075HDp6gT5E-166" value="Application Services/Use Case Services" style="shape=folder;fontStyle=1;spacingTop=10;tabWidth=40;tabHeight=14;tabPosition=left;html=1;whiteSpace=wrap;fillColor=#1BA1E2;labelPosition=center;verticalLabelPosition=top;align=center;verticalAlign=bottom;spacing=-31;strokeColor=#030303;" vertex="1" parent="1">
          <mxGeometry x="525" y="1430" width="520" height="120" as="geometry" />
        </mxCell>
        <mxCell id="TpiVkqb_S075HDp6gT5E-167" value="&lt;span style=&quot;background-color: initial;&quot;&gt;Core&lt;/span&gt;" style="shape=folder;fontStyle=1;spacingTop=10;tabWidth=40;tabHeight=14;tabPosition=left;html=1;whiteSpace=wrap;fillColor=#1BA1E2;labelPosition=center;verticalLabelPosition=top;align=center;verticalAlign=bottom;spacing=-31;strokeColor=#030303;" vertex="1" parent="1">
          <mxGeometry x="525" y="1610" width="520" height="120" as="geometry" />
        </mxCell>
        <mxCell id="TpiVkqb_S075HDp6gT5E-168" value="Controllers" style="shape=folder;fontStyle=1;spacingTop=10;tabWidth=40;tabHeight=14;tabPosition=left;html=1;whiteSpace=wrap;fillColor=#1BA1E2;labelPosition=center;verticalLabelPosition=top;align=center;verticalAlign=bottom;spacing=-31;strokeColor=#030303;" vertex="1" parent="1">
          <mxGeometry x="545" y="1280" width="150" height="70" as="geometry" />
        </mxCell>
        <mxCell id="TpiVkqb_S075HDp6gT5E-169" value="Repositories" style="shape=folder;fontStyle=1;spacingTop=10;tabWidth=40;tabHeight=14;tabPosition=left;html=1;whiteSpace=wrap;fillColor=#1BA1E2;labelPosition=center;verticalLabelPosition=top;align=center;verticalAlign=bottom;spacing=-31;strokeColor=#030303;" vertex="1" parent="1">
          <mxGeometry x="875" y="1280" width="150" height="70" as="geometry" />
        </mxCell>
        <mxCell id="TpiVkqb_S075HDp6gT5E-170" value="App Services" style="shape=folder;fontStyle=1;spacingTop=10;tabWidth=40;tabHeight=14;tabPosition=left;html=1;whiteSpace=wrap;fillColor=#1BA1E2;labelPosition=center;verticalLabelPosition=top;align=center;verticalAlign=bottom;spacing=-31;strokeColor=#030303;" vertex="1" parent="1">
          <mxGeometry x="714" y="1470" width="150" height="70" as="geometry" />
        </mxCell>
        <mxCell id="TpiVkqb_S075HDp6gT5E-171" value="Aggregates" style="shape=folder;fontStyle=1;spacingTop=10;tabWidth=40;tabHeight=14;tabPosition=left;html=1;whiteSpace=wrap;fillColor=#1BA1E2;labelPosition=center;verticalLabelPosition=top;align=center;verticalAlign=bottom;spacing=-31;strokeColor=#030303;" vertex="1" parent="1">
          <mxGeometry x="545" y="1640" width="150" height="70" as="geometry" />
        </mxCell>
        <mxCell id="TpiVkqb_S075HDp6gT5E-172" value="Services" style="shape=folder;fontStyle=1;spacingTop=10;tabWidth=40;tabHeight=14;tabPosition=left;html=1;whiteSpace=wrap;fillColor=#1BA1E2;labelPosition=center;verticalLabelPosition=top;align=center;verticalAlign=bottom;spacing=-31;strokeColor=#030303;" vertex="1" parent="1">
          <mxGeometry x="875" y="1640" width="150" height="70" as="geometry" />
        </mxCell>
        <mxCell id="TpiVkqb_S075HDp6gT5E-173" value="Value Objects" style="shape=folder;fontStyle=1;spacingTop=10;tabWidth=40;tabHeight=14;tabPosition=left;html=1;whiteSpace=wrap;fillColor=#1BA1E2;labelPosition=center;verticalLabelPosition=top;align=center;verticalAlign=bottom;spacing=-31;strokeColor=#030303;" vertex="1" parent="1">
          <mxGeometry x="710" y="1640" width="150" height="70" as="geometry" />
        </mxCell>
        <mxCell id="TpiVkqb_S075HDp6gT5E-174" value="" style="html=1;verticalAlign=bottom;endArrow=open;dashed=1;endSize=8;curved=0;rounded=0;exitX=0.75;exitY=1;exitDx=0;exitDy=0;exitPerimeter=0;strokeWidth=2;entryX=0;entryY=0;entryDx=95;entryDy=14;entryPerimeter=0;strokeColor=#030303;fillColor=#1BA1E2;" edge="1" parent="1" source="TpiVkqb_S075HDp6gT5E-163" target="TpiVkqb_S075HDp6gT5E-168">
          <mxGeometry relative="1" as="geometry">
            <mxPoint x="658" y="1180" as="sourcePoint" />
            <mxPoint x="580" y="1210" as="targetPoint" />
          </mxGeometry>
        </mxCell>
        <mxCell id="TpiVkqb_S075HDp6gT5E-175" value="" style="html=1;verticalAlign=bottom;endArrow=open;dashed=1;endSize=8;curved=0;rounded=0;exitX=0.25;exitY=1;exitDx=0;exitDy=0;exitPerimeter=0;strokeWidth=2;entryX=0.002;entryY=0.538;entryDx=0;entryDy=0;entryPerimeter=0;strokeColor=#030303;fillColor=#1BA1E2;" edge="1" parent="1" source="TpiVkqb_S075HDp6gT5E-168" target="TpiVkqb_S075HDp6gT5E-170">
          <mxGeometry relative="1" as="geometry">
            <mxPoint x="723" y="1320" as="sourcePoint" />
            <mxPoint x="705" y="1434" as="targetPoint" />
            <Array as="points">
              <mxPoint x="583" y="1510" />
            </Array>
          </mxGeometry>
        </mxCell>
        <mxCell id="TpiVkqb_S075HDp6gT5E-176" value="" style="html=1;verticalAlign=bottom;endArrow=block;dashed=1;endSize=8;curved=0;rounded=0;exitX=0.25;exitY=1;exitDx=0;exitDy=0;exitPerimeter=0;strokeWidth=2;entryX=0;entryY=0;entryDx=150;entryDy=42;entryPerimeter=0;endFill=0;strokeColor=#030303;fillColor=#1BA1E2;" edge="1" parent="1" target="TpiVkqb_S075HDp6gT5E-170">
          <mxGeometry relative="1" as="geometry">
            <mxPoint x="995" y="1350" as="sourcePoint" />
            <mxPoint x="1126" y="1508" as="targetPoint" />
            <Array as="points">
              <mxPoint x="995" y="1510" />
            </Array>
          </mxGeometry>
        </mxCell>
        <mxCell id="TpiVkqb_S075HDp6gT5E-177" value="" style="html=1;verticalAlign=bottom;endArrow=open;dashed=1;endSize=8;curved=0;rounded=0;exitX=0;exitY=0;exitDx=95;exitDy=14;exitPerimeter=0;strokeWidth=2;entryX=0.75;entryY=1;entryDx=0;entryDy=0;entryPerimeter=0;strokeColor=#030303;fillColor=#1BA1E2;" edge="1" parent="1" source="TpiVkqb_S075HDp6gT5E-169" target="TpiVkqb_S075HDp6gT5E-164">
          <mxGeometry relative="1" as="geometry">
            <mxPoint x="668" y="1190" as="sourcePoint" />
            <mxPoint x="650" y="1304" as="targetPoint" />
          </mxGeometry>
        </mxCell>
        <mxCell id="TpiVkqb_S075HDp6gT5E-178" value="" style="html=1;verticalAlign=bottom;endArrow=open;dashed=1;endSize=8;curved=0;rounded=0;exitX=0.25;exitY=1;exitDx=0;exitDy=0;exitPerimeter=0;strokeWidth=2;entryX=0;entryY=0;entryDx=95;entryDy=14;entryPerimeter=0;strokeColor=#030303;fillColor=#1BA1E2;" edge="1" parent="1" source="TpiVkqb_S075HDp6gT5E-170" target="TpiVkqb_S075HDp6gT5E-171">
          <mxGeometry relative="1" as="geometry">
            <mxPoint x="728" y="1520" as="sourcePoint" />
            <mxPoint x="710" y="1634" as="targetPoint" />
          </mxGeometry>
        </mxCell>
        <mxCell id="TpiVkqb_S075HDp6gT5E-179" value="" style="html=1;verticalAlign=bottom;endArrow=open;dashed=1;endSize=8;curved=0;rounded=0;exitX=0.75;exitY=1;exitDx=0;exitDy=0;exitPerimeter=0;strokeWidth=2;entryX=0;entryY=0;entryDx=95;entryDy=14;entryPerimeter=0;strokeColor=#030303;fillColor=#1BA1E2;" edge="1" parent="1" target="TpiVkqb_S075HDp6gT5E-173">
          <mxGeometry relative="1" as="geometry">
            <mxPoint x="823" y="1540" as="sourcePoint" />
            <mxPoint x="805" y="1654" as="targetPoint" />
          </mxGeometry>
        </mxCell>
        <mxCell id="TpiVkqb_S075HDp6gT5E-180" value="" style="html=1;verticalAlign=bottom;endArrow=open;dashed=1;endSize=8;curved=0;rounded=0;exitX=0.75;exitY=1;exitDx=0;exitDy=0;exitPerimeter=0;strokeWidth=2;entryX=0;entryY=0;entryDx=95;entryDy=14;entryPerimeter=0;strokeColor=#030303;fillColor=#1BA1E2;" edge="1" parent="1" target="TpiVkqb_S075HDp6gT5E-172">
          <mxGeometry relative="1" as="geometry">
            <mxPoint x="860" y="1540" as="sourcePoint" />
            <mxPoint x="842" y="1654" as="targetPoint" />
          </mxGeometry>
        </mxCell>
        <mxCell id="TpiVkqb_S075HDp6gT5E-181" value="" style="endArrow=block;startArrow=none;endFill=0;startFill=0;endSize=8;html=1;verticalAlign=bottom;dashed=1;labelBackgroundColor=none;rounded=0;exitX=0;exitY=0;exitDx=520;exitDy=67;exitPerimeter=0;entryX=0;entryY=0;entryDx=1250;entryDy=65;entryPerimeter=0;" edge="1" parent="1" source="TpiVkqb_S075HDp6gT5E-162" target="TpiVkqb_S075HDp6gT5E-4">
          <mxGeometry width="160" relative="1" as="geometry">
            <mxPoint x="830" y="1080" as="sourcePoint" />
            <mxPoint x="990" y="1080" as="targetPoint" />
            <Array as="points">
              <mxPoint x="1500" y="780" />
              <mxPoint x="1490" y="290" />
            </Array>
          </mxGeometry>
        </mxCell>
        <mxCell id="TpiVkqb_S075HDp6gT5E-182" value="" style="endArrow=block;startArrow=none;endFill=0;startFill=0;endSize=8;html=1;verticalAlign=bottom;dashed=1;labelBackgroundColor=none;rounded=0;exitX=0;exitY=0;exitDx=520;exitDy=67;exitPerimeter=0;entryX=0;entryY=0;entryDx=1250;entryDy=65;entryPerimeter=0;" edge="1" parent="1">
          <mxGeometry width="160" relative="1" as="geometry">
            <mxPoint x="1045" y="1342" as="sourcePoint" />
            <mxPoint x="1310" y="430" as="targetPoint" />
            <Array as="points">
              <mxPoint x="1500" y="975" />
              <mxPoint x="1490" y="485" />
            </Array>
          </mxGeometry>
        </mxCell>
        <mxCell id="TpiVkqb_S075HDp6gT5E-183" value="" style="endArrow=block;startArrow=none;endFill=0;startFill=0;endSize=8;html=1;verticalAlign=bottom;dashed=1;labelBackgroundColor=none;rounded=0;exitX=0;exitY=0;exitDx=0;exitDy=67;exitPerimeter=0;entryX=0.246;entryY=1.003;entryDx=0;entryDy=0;entryPerimeter=0;" edge="1" parent="1" source="TpiVkqb_S075HDp6gT5E-166" target="TpiVkqb_S075HDp6gT5E-25">
          <mxGeometry width="160" relative="1" as="geometry">
            <mxPoint x="445" y="1596" as="sourcePoint" />
            <mxPoint x="220" y="970" as="targetPoint" />
            <Array as="points">
              <mxPoint x="360" y="1230" />
            </Array>
          </mxGeometry>
        </mxCell>
        <mxCell id="TpiVkqb_S075HDp6gT5E-184" value="" style="endArrow=block;startArrow=none;endFill=0;startFill=0;endSize=8;html=1;verticalAlign=bottom;dashed=1;labelBackgroundColor=none;rounded=0;exitX=0;exitY=0;exitDx=0;exitDy=67;exitPerimeter=0;entryX=0.127;entryY=0.992;entryDx=0;entryDy=0;entryPerimeter=0;" edge="1" parent="1" target="TpiVkqb_S075HDp6gT5E-26">
          <mxGeometry width="160" relative="1" as="geometry">
            <mxPoint x="525" y="1700" as="sourcePoint" />
            <mxPoint x="365" y="870" as="targetPoint" />
            <Array as="points">
              <mxPoint x="360" y="1433" />
            </Array>
          </mxGeometry>
        </mxCell>
        <mxCell id="TpiVkqb_S075HDp6gT5E-185" value="&amp;lt;&amp;lt;manifest&amp;gt;&amp;gt;" style="text;html=1;align=center;verticalAlign=middle;whiteSpace=wrap;rounded=0;" vertex="1" parent="1">
          <mxGeometry x="1390" y="1015" width="60" height="30" as="geometry" />
        </mxCell>
        <mxCell id="TpiVkqb_S075HDp6gT5E-187" value="&amp;lt;&amp;lt;manifest&amp;gt;&amp;gt;" style="text;html=1;align=center;verticalAlign=middle;whiteSpace=wrap;rounded=0;" vertex="1" parent="1">
          <mxGeometry x="1277" y="931" width="60" height="30" as="geometry" />
        </mxCell>
        <mxCell id="TpiVkqb_S075HDp6gT5E-188" value="&amp;lt;&amp;lt;manifest&amp;gt;&amp;gt;" style="text;html=1;align=center;verticalAlign=middle;whiteSpace=wrap;rounded=0;" vertex="1" parent="1">
          <mxGeometry x="343" y="1015" width="60" height="30" as="geometry" />
        </mxCell>
        <mxCell id="TpiVkqb_S075HDp6gT5E-189" value="&amp;lt;&amp;lt;manifest&amp;gt;&amp;gt;" style="text;html=1;align=center;verticalAlign=middle;whiteSpace=wrap;rounded=0;" vertex="1" parent="1">
          <mxGeometry x="270" y="1200" width="60" height="30" as="geometry" />
        </mxCell>
      </root>
    </mxGraphModel>
  </diagram>
</mxfile>
